<?xml version="1.0" encoding="UTF-8"?>
<svg width="800" height="600" viewBox="0 0 800 600" fill="none" xmlns="http://www.w3.org/2000/svg">
  <!-- Background -->
  <rect width="800" height="600" rx="12" fill="#F8FAFC"/>
  
  <!-- Header -->
  <rect x="20" y="20" width="760" height="60" rx="8" fill="#FFFFFF" stroke="#E2E8F0"/>
  <rect x="40" y="40" width="120" height="20" rx="4" fill="#6366F1"/>
  <rect x="600" y="40" width="160" height="20" rx="4" fill="#E2E8F0"/>
  
  <!-- Sidebar -->
  <rect x="20" y="100" width="200" height="480" rx="8" fill="#FFFFFF" stroke="#E2E8F0"/>
  <rect x="40" y="120" width="160" height="20" rx="4" fill="#E2E8F0"/>
  <rect x="40" y="160" width="160" height="20" rx="4" fill="#E2E8F0"/>
  <rect x="40" y="200" width="160" height="20" rx="4" fill="#E2E8F0"/>
  <rect x="40" y="240" width="160" height="20" rx="4" fill="#E2E8F0"/>
  
  <!-- Main Content -->
  <rect x="240" y="100" width="540" height="480" rx="8" fill="#FFFFFF" stroke="#E2E8F0"/>
  
  <!-- Stats Cards -->
  <rect x="260" y="120" width="160" height="100" rx="8" fill="#F1F5F9"/>
  <rect x="440" y="120" width="160" height="100" rx="8" fill="#F1F5F9"/>
  <rect x="600" y="120" width="160" height="100" rx="8" fill="#F1F5F9"/>
  
  <!-- Chart -->
  <rect x="260" y="240" width="500" height="200" rx="8" fill="#F1F5F9"/>
  
  <!-- Task List -->
  <rect x="260" y="460" width="500" height="100" rx="8" fill="#F1F5F9"/>
  <rect x="280" y="480" width="460" height="20" rx="4" fill="#E2E8F0"/>
  <rect x="280" y="520" width="460" height="20" rx="4" fill="#E2E8F0"/>
</svg> 